<?xml version="1.0" encoding="iso-8859-1"?>
<!-- Generator: Adobe Illustrator 19.0.0, SVG Export Plug-In . SVG Version: 6.00 Build 0)  -->
<svg version="1.1" id="Capa_1" xmlns="http://www.w3.org/2000/svg" xmlns:xlink="http://www.w3.org/1999/xlink" x="0px" y="0px"
	 viewBox="0 0 512 512" style="enable-background:new 0 0 512 512;" xml:space="preserve">
<circle style="fill:#5DC1D8;" cx="256" cy="267" r="245"/>
<path style="fill:#D9EAFC;" d="M50.477,400.388C94.167,467.568,169.89,512,256,512c86.109,0,161.833-44.432,205.523-111.612V46.53
	H50.477V400.388z"/>
<path style="fill:#AEC1ED;" d="M50.477,46.53v353.857c6.023,9.262,12.658,18.088,19.843,26.429V46.53H50.477z"/>
<path style="fill:#293D7C;" d="M451.523,0H60.477c-5.5,0-10,4.5-10,10v37.53h411.047V10C461.523,4.5,457.023,0,451.523,0z"/>
<path style="fill:#FFFFFF;" d="M377.863,74.497h-190.99l0,0v41.031h190.99c2.75,0,5-2.25,5-5V79.497
	C382.863,76.747,380.613,74.497,377.863,74.497z"/>
<path style="fill:#69CDFF;" d="M134.137,74.497c-2.75,0-5,2.25-5,5v31.032c0,2.75,2.25,5,5,5h53.736V74.497H134.137z"/>
<path style="fill:#52BBEF;" d="M148.98,110.529V79.497c0-2.75,2.25-5,5-5h-19.843c-2.75,0-5,2.25-5,5v31.032c0,2.75,2.25,5,5,5
	h19.843C151.23,115.529,148.98,113.279,148.98,110.529z"/>
<path style="fill:#69CDFF;" d="M153,270.017c0-2.75-2.25-5-5-5H88c-2.75,0-5,2.25-5,5v30c0,2.75,2.25,5,5,5h60c2.75,0,5-2.25,5-5
	V270.017z"/>
<path style="fill:#F87EAB;" d="M198,328.017c0-2.75-2.25-5-5-5H88c-2.75,0-5,2.25-5,5v30c0,2.75,2.25,5,5,5h105c2.75,0,5-2.25,5-5
	V328.017z"/>
<g>
	<path style="fill:#FF9518;" d="M247,386.017c0-2.75-2.25-5-5-5H88c-2.75,0-5,2.25-5,5v30c0,2.75,2.25,5,5,5h154c2.75,0,5-2.25,5-5
		V386.017z"/>
	<path style="fill:#FF9518;" d="M357,386.017c0-2.75-2.25-5-5-5h-82c-2.75,0-5,2.25-5,5v30c0,2.75,2.25,5,5,5h82c2.75,0,5-2.25,5-5
		V386.017z"/>
</g>
<path style="fill:#EF8318;" d="M380,381.017c-2.75,0-5,2.25-5,5v30c0,2.75,2.25,5,5,5h50c2.75,0,5-2.25,5-5v-30c0-2.75-2.25-5-5-5
	H380z"/>
<path style="fill:#F87EAB;" d="M315,328.017c0-2.75-2.25-5-5-5h-89c-2.75,0-5,2.25-5,5v30c0,2.75,2.25,5,5,5h89c2.75,0,5-2.25,5-5
	V328.017z"/>
<path style="fill:#EF8318;" d="M338,323.017c-2.75,0-5,2.25-5,5v30c0,2.75,2.25,5,5,5h92c2.75,0,5-2.25,5-5v-30c0-2.75-2.25-5-5-5
	H338z"/>
<path style="fill:#69CDFF;" d="M275,270.017c0-2.75-2.25-5-5-5h-94c-2.75,0-5,2.25-5,5v30c0,2.75,2.25,5,5,5h94c2.75,0,5-2.25,5-5
	V270.017z"/>
<g>
	<path style="fill:#52BBEF;" d="M102.843,300.017v-30c0-2.75,2.25-5,5-5H88c-2.75,0-5,2.25-5,5v30c0,2.75,2.25,5,5,5h19.843
		C105.093,305.017,102.843,302.767,102.843,300.017z"/>
	<path style="fill:#52BBEF;" d="M190.843,300.017v-30c0-2.75,2.25-5,5-5H176c-2.75,0-5,2.25-5,5v30c0,2.75,2.25,5,5,5h19.843
		C193.093,305.017,190.843,302.767,190.843,300.017z"/>
</g>
<g>
	<path style="fill:#0F9390;" d="M364,270.017c0-2.75-2.25-5-5-5h-61c-2.75,0-5,2.25-5,5v30c0,2.75,2.25,5,5,5h61c2.75,0,5-2.25,5-5
		V270.017z"/>
	<path style="fill:#0F9390;" d="M387,265.017c-2.75,0-5,2.25-5,5v30c0,2.75,2.25,5,5,5h43c2.75,0,5-2.25,5-5v-30c0-2.75-2.25-5-5-5
		H387z"/>
</g>
<g>
	<path style="fill:#159E97;" d="M401.843,300.017v-30c0-2.75,2.25-5,5-5H387c-2.75,0-5,2.25-5,5v30c0,2.75,2.25,5,5,5h19.843
		C404.093,305.017,401.843,302.767,401.843,300.017z"/>
	<path style="fill:#159E97;" d="M312.843,300.017v-30c0-2.75,2.25-5,5-5H298c-2.75,0-5,2.25-5,5v30c0,2.75,2.25,5,5,5h19.843
		C315.093,305.017,312.843,302.767,312.843,300.017z"/>
</g>
<g>
	<path style="fill:#A53535;" d="M263.5,442.017c0-2.75-2.25-5-5-5h-94c-2.75,0-5,2.25-5,5v30c0,2.75,2.25,5,5,5h94
		c2.75,0,5-2.25,5-5V442.017z"/>
	<path style="fill:#A53535;" d="M352.5,442.017c0-2.75-2.25-5-5-5h-61c-2.75,0-5,2.25-5,5v30c0,2.75,2.25,5,5,5h61
		c2.75,0,5-2.25,5-5V442.017z"/>
</g>
<path style="fill:#E26693;" d="M102.843,358.017v-30c0-2.75,2.25-5,5-5H88c-2.75,0-5,2.25-5,5v30c0,2.75,2.25,5,5,5h19.843
	C105.093,363.017,102.843,360.767,102.843,358.017z"/>
<g>
	<path style="fill:#EF8318;" d="M102.843,416.017v-30c0-2.75,2.25-5,5-5H88c-2.75,0-5,2.25-5,5v30c0,2.75,2.25,5,5,5h19.843
		C105.093,421.017,102.843,418.767,102.843,416.017z"/>
	<path style="fill:#EF8318;" d="M284.843,416.017v-30c0-2.75,2.25-5,5-5H270c-2.75,0-5,2.25-5,5v30c0,2.75,2.25,5,5,5h19.843
		C287.093,421.017,284.843,418.767,284.843,416.017z"/>
</g>
<path style="fill:#DB722C;" d="M394.843,416.017v-30c0-2.75,2.25-5,5-5H380c-2.75,0-5,2.25-5,5v30c0,2.75,2.25,5,5,5h19.843
	C397.093,421.017,394.843,418.767,394.843,416.017z"/>
<path style="fill:#E26693;" d="M235.843,358.017v-30c0-2.75,2.25-5,5-5H221c-2.75,0-5,2.25-5,5v30c0,2.75,2.25,5,5,5h19.843
	C238.093,363.017,235.843,360.767,235.843,358.017z"/>
<path style="fill:#DB722C;" d="M352.843,358.017v-30c0-2.75,2.25-5,5-5H338c-2.75,0-5,2.25-5,5v30c0,2.75,2.25,5,5,5h19.843
	C355.093,363.017,352.843,360.767,352.843,358.017z"/>
<g>
	<path style="fill:#994334;" d="M179.343,472.017v-30c0-2.75,2.25-5,5-5H164.5c-2.75,0-5,2.25-5,5v30c0,2.75,2.25,5,5,5h19.843
		C181.593,477.017,179.343,474.767,179.343,472.017z"/>
	<path style="fill:#994334;" d="M301.343,472.017v-30c0-2.75,2.25-5,5-5H286.5c-2.75,0-5,2.25-5,5v30c0,2.75,2.25,5,5,5h19.843
		C303.593,477.017,301.343,474.767,301.343,472.017z"/>
</g>
<path style="fill:#445EA0;" d="M288.418,185.176c0-6.656,1.34-12.998,3.76-18.776H145.426c-1.633,0-3.918,0.924-5.096,2.061
	l-14.916,14.435c-0.574,0.555-0.898,1.318-0.902,2.117c-0.004,0.799,0.314,1.565,0.885,2.125l14.955,14.736
	c0.369,0.363,0.848,0.706,1.422,1.019c0.443,0.241,0.93,0.36,1.414,0.36c0.719,0,1.43-0.26,1.986-0.763l15.881-14.32
	c0.584-0.528,1.365-0.819,2.199-0.819c0.836,0,1.615,0.291,2.203,0.819l16.564,14.938c0.564,0.509,1.275,0.763,1.986,0.763
	s1.42-0.254,1.984-0.763l16.566-14.938c0.584-0.528,1.367-0.819,2.201-0.819c0.836,0,1.615,0.291,2.201,0.819l16.658,15.021
	c0.545,0.491,1.25,0.762,1.984,0.762h22.014c0.947,0,1.836-0.452,2.395-1.218l10.318-14.155c0.465-0.638,1.086-0.989,1.746-0.989
	c0.662,0,1.283,0.352,1.746,0.988l10.316,14.155c0.56,0.766,1.451,1.218,2.398,1.218h15.641
	C289.758,198.174,288.418,191.833,288.418,185.176z"/>
<path style="fill:#293D7C;" d="M140.239,187.137c-0.57-0.56-0.889-1.326-0.885-2.125c0.004-0.798,0.328-1.561,0.902-2.117
	l14.916-14.435c1.178-1.137,3.463-2.061,5.096-2.061h-14.843c-1.633,0-3.918,0.924-5.096,2.061l-14.916,14.435
	c-0.574,0.555-0.898,1.318-0.902,2.117c-0.004,0.799,0.314,1.565,0.885,2.125l14.955,14.736c0.369,0.363,0.848,0.706,1.422,1.019
	c0.443,0.241,0.93,0.36,1.414,0.36c0.719,0,1.43-0.26,1.986-0.763l5.559-5.012L140.239,187.137z"/>
<path style="fill:#FF9518;" d="M337.082,134.771c-27.838,0-50.404,22.568-50.404,50.405c0,27.838,22.566,50.406,50.404,50.406
	s50.406-22.567,50.406-50.406C387.488,157.338,364.92,134.771,337.082,134.771z M353.883,197.781
	c-6.963,0-12.605-5.643-12.605-12.605s5.643-12.605,12.605-12.605c6.963,0,12.603,5.643,12.603,12.605
	S360.846,197.781,353.883,197.781z"/>
<g>
	<path style="fill:#DB722C;" d="M326.277,200.251c-4.143,0-7.5-3.358-7.5-7.5v-17.13c0-4.142,3.357-7.5,7.5-7.5s7.5,3.358,7.5,7.5
		v17.13C333.777,196.893,330.42,200.251,326.277,200.251z"/>
	<path style="fill:#DB722C;" d="M308.488,196.297c-4.143,0-7.5-3.358-7.5-7.5v-9.224c0-4.142,3.357-7.5,7.5-7.5s7.5,3.358,7.5,7.5
		v9.224C315.988,192.94,312.631,196.297,308.488,196.297z"/>
</g>
<path style="fill:#E26693;" d="M80.339,31.281c-2.139,0-4.224-0.865-5.735-2.366c-1.502-1.512-2.366-3.597-2.366-5.735
	c0-2.129,0.864-4.213,2.366-5.725c1.512-1.513,3.597-2.377,5.735-2.377c2.128,0,4.224,0.864,5.725,2.377
	c1.513,1.512,2.377,3.596,2.377,5.725c0,2.138-0.864,4.223-2.377,5.735C84.563,30.416,82.467,31.281,80.339,31.281z"/>
<path style="fill:#FFAF10;" d="M106.906,31.281c-2.128,0-4.224-0.865-5.726-2.378c-1.512-1.501-2.376-3.586-2.376-5.724
	c0-2.129,0.864-4.213,2.376-5.725c1.513-1.513,3.598-2.377,5.726-2.377c2.139,0,4.223,0.864,5.736,2.377
	c1.501,1.512,2.365,3.596,2.365,5.725c0,2.128-0.864,4.223-2.365,5.724C111.129,30.416,109.045,31.281,106.906,31.281z"/>
<path style="fill:#37C47A;" d="M133.484,31.281c-2.139,0-4.224-0.865-5.725-2.366c-1.513-1.512-2.377-3.597-2.377-5.735
	c0-2.129,0.864-4.213,2.377-5.725c1.501-1.513,3.586-2.377,5.725-2.377c2.128,0,4.224,0.864,5.725,2.377
	c1.513,1.512,2.377,3.596,2.377,5.725c0,2.138-0.864,4.223-2.377,5.735C137.697,30.416,135.612,31.281,133.484,31.281z"/>
<g>
</g>
<g>
</g>
<g>
</g>
<g>
</g>
<g>
</g>
<g>
</g>
<g>
</g>
<g>
</g>
<g>
</g>
<g>
</g>
<g>
</g>
<g>
</g>
<g>
</g>
<g>
</g>
<g>
</g>
</svg>
