<?xml version="1.0" encoding="iso-8859-1"?>
<!-- Generator: Adobe Illustrator 19.0.0, SVG Export Plug-In . SVG Version: 6.00 Build 0)  -->
<svg version="1.1" id="Capa_1" xmlns="http://www.w3.org/2000/svg" xmlns:xlink="http://www.w3.org/1999/xlink" x="0px" y="0px"
	 viewBox="0 0 512 512" style="enable-background:new 0 0 512 512;" xml:space="preserve">
<path style="fill:#3CAF96;" d="M512,256c0,141.385-114.615,256-256,256S0,397.385,0,256S114.615,0,256,0S512,114.615,512,256z"/>
<path style="fill:#415F78;" d="M341,425c0,46.944-38.056,85-85,85s-85-38.056-85-85c0-32.481,18.225-60.696,45-75.005V280h80v69.995
	C322.775,364.304,341,392.519,341,425z"/>
<path style="fill:#3C5064;" d="M270.5,508.743c-4.715,0.811-9.554,1.257-14.5,1.257c-46.944,0-85-38.056-85-85
	c0-32.485,18.23-60.698,45.014-75H216v-70h24v72.913c-24.017,15.014-40,41.674-40,72.087C200,466.998,230.467,501.858,270.5,508.743
	z"/>
<path style="fill:#C8E6EB;" d="M492,135v40c0,74.558-60.441,135-135,135H155c-74.559,0-135-60.442-135-135v-40
	C20,60.441,80.441,0,155,0h202C431.559,0,492,60.441,492,135z M349.68,379.868c-5.664-3.696-12.829-4.144-19.011-1.402
	C313.957,385.879,295.46,390,276,390h-40c-19.46,0-37.957-4.121-54.669-11.534c-6.182-2.742-13.347-2.294-19.011,1.402
	c-28.703,18.731-49.834,48.09-57.82,82.491C146.922,493.556,199.304,512,256,512s109.078-18.444,151.5-49.641
	C399.514,427.958,378.383,398.599,349.68,379.868z"/>
<path style="fill:#415F78;" d="M422,90v130c0,16.569-13.431,30-30,30H120c-16.569,0-30-13.431-30-30V90c0-16.569,13.431-30,30-30
	h272C408.569,60,422,73.431,422,90z M210,40h92c16.569,0,30-13.431,30-30V0H180v10C180,26.569,193.431,40,210,40z"/>
<path style="fill:#3C5064;" d="M118,90v130c0,16.569,13.431,30,30,30h-28c-16.569,0-30-13.431-30-30V90c0-16.569,13.431-30,30-30h28
	C131.431,60,118,73.431,118,90z M257,10c-5.523,0-10,4.477-10,10s4.477,10,10,10c5.523,0,10-4.477,10-10S262.523,10,257,10z M221,10
	c-5.523,0-10,4.477-10,10s4.477,10,10,10s10-4.477,10-10S226.523,10,221,10z M291,10c-5.523,0-10,4.477-10,10s4.477,10,10,10
	s10-4.477,10-10S296.523,10,291,10z"/>
<path style="fill:#50C8C8;" d="M186,105c-27.614,0-50,22.386-50,50s22.386,50,50,50s50-22.386,50-50S213.614,105,186,105z M186,185
	c-16.569,0-30-13.431-30-30s13.431-30,30-30s30,13.431,30,30S202.569,185,186,185z M326,105c-27.614,0-50,22.386-50,50
	s22.386,50,50,50s50-22.386,50-50S353.614,105,326,105z M326,185c-16.569,0-30-13.431-30-30s13.431-30,30-30s30,13.431,30,30
	S342.569,185,326,185z"/>
<path style="fill:#B4D7DC;" d="M180.104,377.97c-25.244,27.67-44.483,60.905-55.668,97.656c-6.859-4.119-13.513-8.544-19.936-13.267
	c7.986-34.401,29.117-63.76,57.82-82.491C167.613,376.414,174.216,375.798,180.104,377.97z M58,175v-40C58,60.441,118.441,0,193,0
	h-38C80.441,0,20,60.441,20,135v40c0,74.558,60.441,135,135,135h38C118.441,310,58,249.558,58,175z"/>
<path style="fill:#82E1E1;" d="M256,512c-22.156,0-43.648-2.828-64.149-8.122C184.965,492.541,181,479.234,181,465v-86.669
	c0.11,0.046,0.221,0.086,0.331,0.135C198.043,385.879,216.539,390,236,390h40c19.46,0,37.957-4.121,54.669-11.534
	c0.109-0.048,0.221-0.088,0.331-0.135V465c0,14.234-3.965,27.541-10.851,38.878C299.648,509.172,278.156,512,256,512z"/>
<path style="fill:#E1FFFA;" d="M256,430c-13.807,0-25,11.193-25,25s11.193,25,25,25s25-11.193,25-25S269.807,430,256,430z M256,470
	c-8.284,0-15-6.716-15-15c0-6.528,4.178-12.067,10-14.128V455c0,2.761,2.239,5,5,5c2.761,0,5-2.239,5-5v-14.128
	c5.822,2.061,10,7.6,10,14.128C271,463.284,264.284,470,256,470z"/>
<g>
</g>
<g>
</g>
<g>
</g>
<g>
</g>
<g>
</g>
<g>
</g>
<g>
</g>
<g>
</g>
<g>
</g>
<g>
</g>
<g>
</g>
<g>
</g>
<g>
</g>
<g>
</g>
<g>
</g>
</svg>
